<svg width="59" height="59" viewBox="0 0 59 59" fill="none" xmlns="http://www.w3.org/2000/svg">
<rect width="59" height="59" rx="6" fill="#F6C7D9"/>
<path d="M33.0605 44.1864C33.3335 42.6155 33.6063 41.044 33.8788 39.4721C34.1624 37.8485 34.4481 36.2248 34.7359 34.6012C34.7471 34.5602 34.7605 34.5199 34.7761 34.4805C35.1619 34.5617 35.5564 34.6242 35.9378 34.7269C37.3764 35.1206 38.6466 35.9742 39.5546 37.1574C40.4626 38.3405 40.9586 39.7883 40.9668 41.2797C40.9755 42.2481 40.9668 43.2194 40.9668 44.1864H33.0605Z" fill="#EA4C89"/>
<path d="M19.9961 44.1869C19.9961 43.2529 19.9961 42.319 19.9961 41.385C20.0047 37.8813 22.479 35.0298 25.9396 34.5341C26.018 34.5226 26.0963 34.5097 26.2012 34.4932C26.2996 35.0399 26.398 35.5708 26.4885 36.1089C26.9569 38.7738 27.4249 41.4387 27.8923 44.1036C27.896 44.1312 27.8982 44.159 27.8988 44.1869H19.9961Z" fill="#EA4C89"/>
<path d="M31.3395 16.5991C31.8611 16.6709 32.3862 16.7234 32.9042 16.8182C34.2125 17.0575 35.4525 17.4749 36.5036 18.3269C37.1422 18.8456 37.5956 19.4836 37.7198 20.322C37.8255 21.0404 37.4856 21.447 36.7665 21.447H24.194C23.4756 21.447 23.1329 21.039 23.2414 20.322C23.3851 19.3686 23.9404 18.6897 24.6912 18.1473C25.7918 17.352 27.0526 16.972 28.3738 16.7607C28.7876 16.6939 29.2058 16.6515 29.6217 16.5977L31.3395 16.5991Z" fill="#EA4C89"/>
<path d="M29.5107 44.1866C29.413 43.5608 29.3476 42.9272 29.2068 42.3107C29.1019 41.8524 29.1608 41.4968 29.4798 41.139C29.839 40.7403 30.1264 40.2884 30.4755 39.8271C30.561 39.9378 30.6307 40.0247 30.6975 40.1145C31.0251 40.5513 31.3441 40.9953 31.6832 41.4213C31.7452 41.4958 31.7885 41.584 31.8095 41.6786C31.8305 41.7732 31.8286 41.8715 31.8039 41.9652C31.6803 42.6247 31.5682 43.2864 31.4555 43.948C31.4468 44.0272 31.4439 44.107 31.4468 44.1866H29.5107Z" fill="#EA4C89"/>
<path d="M24.8385 26.6572C25.5246 27.0689 26.238 27.1163 26.9722 27.112C29.2999 27.0995 31.6284 27.0995 33.9575 27.112C34.6996 27.1163 35.4231 27.0754 36.1128 26.6601C36.1178 26.7628 36.125 26.8289 36.1236 26.8943C36.1085 27.7191 36.1559 28.5467 36.0639 29.3664C35.8484 31.2609 34.1515 32.7768 32.2498 32.8149C31.0687 32.8374 29.8867 32.8374 28.7036 32.8149C26.6834 32.7746 24.9463 31.0827 24.8435 29.0482C24.8055 28.2665 24.8385 27.4849 24.8385 26.6572Z" fill="#EA4C89"/>
<path d="M36.1447 23.084C36.1231 23.4791 36.1447 23.8606 36.0729 24.2263C36.007 24.5787 35.8203 24.8972 35.5449 25.1268C35.2695 25.3564 34.9227 25.4828 34.5642 25.4842C31.8404 25.4938 29.1163 25.4938 26.392 25.4842C25.5457 25.4807 24.8639 24.7802 24.8352 23.9353C24.8259 23.6587 24.8352 23.3807 24.8352 23.0847L36.1447 23.084Z" fill="#EA4C89"/>
<path d="M33.1393 34.3566C33.0847 34.6656 33.0344 34.981 32.9705 35.2906C32.9496 35.3579 32.9082 35.4169 32.852 35.4594C32.0938 36.0902 31.3342 36.7186 30.5731 37.3446C30.5395 37.3689 30.5045 37.3912 30.4682 37.4114L28.6463 35.907C28.5982 35.8668 28.5507 35.8258 28.5026 35.7856C27.9509 35.3308 27.8474 35.1031 27.8467 34.3545C29.6088 34.4744 31.3771 34.4752 33.1393 34.3566Z" fill="#EA4C89"/>
<path d="M28.4258 37.8252L29.3712 38.6083L28.7246 39.4704C28.6212 38.9129 28.5307 38.41 28.4258 37.8252Z" fill="#EA4C89"/>
<path d="M31.5859 38.6096L32.5249 37.833C32.4251 38.4078 32.3374 38.9063 32.2376 39.476L31.5859 38.6096Z" fill="#EA4C89"/>
</svg>
