<svg width="58" height="60" viewBox="0 0 58 60" fill="none" xmlns="http://www.w3.org/2000/svg">
<rect width="58" height="59.1373" rx="6" fill="#FFEFC6"/>
<path d="M34.6125 36.5311C34.3003 36.2956 34.028 36.1108 33.7843 35.8938C33.71 35.8277 33.6868 35.6729 33.6867 35.5586C33.6816 32.3339 33.6845 29.1093 33.6816 25.8846C33.6805 24.715 33.0052 23.7936 31.9401 23.5185C31.6992 23.4563 31.4423 23.4338 31.1926 23.4323C29.8441 23.4242 28.4956 23.4284 27.1516 23.4284C27.138 23.4026 27.1199 23.3843 27.1235 23.3729C27.3807 22.5489 27.6158 21.7168 27.9032 20.9034C28.6099 18.9043 30.5949 17.6458 32.7135 17.8256C34.7505 17.9985 36.4934 19.5737 36.866 21.6122C37.1046 22.9172 36.8523 24.1359 36.0664 25.2109C35.3971 26.1262 34.837 27.0958 34.7088 28.234C34.6132 29.0814 34.6045 29.9449 34.6367 30.7982C34.661 31.4417 35.1302 31.8722 35.7829 32.0256C37.1864 32.3552 38.5905 32.6824 39.9917 33.0217C41.5409 33.3967 42.532 34.6635 42.5333 36.258C42.5351 38.7422 42.5338 41.2265 42.5338 43.7108C42.5338 43.7974 42.5338 43.8841 42.5338 43.9908C41.9133 43.9908 41.3088 43.9908 40.6721 43.9908C40.6721 43.8826 40.6721 43.7785 40.6721 43.6745C40.6721 42.4469 40.6671 41.2194 40.6735 39.992C40.6796 38.8116 40.3063 37.7824 39.5157 36.9016C38.9117 36.2288 38.3253 35.5399 37.7319 34.8575C37.1991 34.2448 36.482 34.0409 35.7675 34.3007C35.0544 34.5601 34.6193 35.2088 34.6128 36.0233C34.6115 36.1689 34.6125 36.3146 34.6125 36.5311Z" fill="#D09808"/>
<path d="M27.6261 28.1211C28.726 28.1211 29.7895 28.1211 30.8856 28.1211C30.8856 28.2368 30.8856 28.3407 30.8856 28.4446C30.8856 30.8024 30.8825 33.1601 30.8907 35.5178C30.8914 35.7446 30.8356 35.8991 30.6426 36.0232C30.4234 36.1639 30.2214 36.3318 29.9558 36.5298C29.9558 36.3231 29.9576 36.1651 29.9554 36.0072C29.9446 35.2132 29.5083 34.5648 28.8108 34.3046C28.1039 34.041 27.3728 34.2434 26.8428 34.8513C26.2291 35.5548 25.6199 36.2623 25.0024 36.9624C24.2628 37.8009 23.9002 38.7806 23.8972 39.8958C23.8937 41.1526 23.8964 42.4094 23.8963 43.6662C23.8963 43.7713 23.8963 43.8764 23.8963 43.9958C23.2729 43.9958 22.6753 43.9958 22.0346 43.9958C22.0346 43.8952 22.0346 43.7927 22.0346 43.6902C22.0346 41.2156 22.0335 38.741 22.035 36.2663C22.036 34.6686 23.0259 33.3966 24.5687 33.0231C25.961 32.6861 27.3566 32.3631 28.7501 32.0312C29.5549 31.8395 29.9527 31.3356 29.9557 30.513C29.9568 30.2206 29.9582 29.9283 29.9552 29.6361C29.9509 29.2216 29.7806 29.047 29.3737 29.043C29.005 29.0394 28.6361 29.0425 28.2673 29.0421C27.7616 29.0417 27.6253 28.9071 27.6261 28.4092C27.6262 28.3226 27.6261 28.2358 27.6261 28.1211Z" fill="#D09808"/>
<path d="M29.9562 38.932C29.9562 38.5141 29.9452 38.1555 29.9643 37.7985C29.9688 37.7145 30.0606 37.6172 30.1368 37.558C30.5899 37.2071 31.0467 36.8606 31.5098 36.5232C31.7244 36.3669 31.8233 36.1776 31.8227 35.9067C31.817 33.3438 31.8206 30.781 31.8184 28.2181C31.8178 27.5559 31.4289 27.1725 30.7635 27.1708C29.8317 27.1685 28.8998 27.1703 27.9681 27.1703C27.8636 27.1703 27.759 27.1703 27.6258 27.1703C27.6258 26.7568 27.6262 26.3697 27.6257 25.9829C27.625 25.4497 27.479 25.3003 26.958 25.2992C26.794 25.2989 26.6301 25.2991 26.4268 25.2991C26.5442 24.9716 26.6511 24.6737 26.7615 24.3657C28.0072 24.3657 29.2394 24.3657 30.4715 24.3657C30.753 24.3657 31.0345 24.3646 31.3159 24.3659C32.151 24.3701 32.7477 24.9629 32.7481 25.7995C32.7501 29.1322 32.7531 32.4649 32.7429 35.7976C32.7418 36.1458 32.8466 36.3847 33.1331 36.5828C33.58 36.892 34.0109 37.2253 34.4352 37.5655C34.5244 37.637 34.5969 37.779 34.6049 37.8938C34.6276 38.2191 34.6129 38.547 34.6129 38.9302C34.0281 38.5385 33.4897 38.1798 32.9532 37.8183C32.2916 37.3724 32.2919 37.3709 31.6324 37.8108C31.0921 38.1712 30.5527 38.5329 29.9562 38.932Z" fill="#D09808"/>
<path d="M35.2677 44.0045C33.2679 44.0045 31.299 44.0045 29.2979 44.0045C29.3422 43.9333 29.3717 43.8788 29.4077 43.829C29.7733 43.3245 29.9491 42.7573 29.9539 42.1369C29.9586 41.5233 29.961 40.9094 29.9513 40.2958C29.9485 40.123 29.992 40.0143 30.1441 39.9157C30.7957 39.4936 31.441 39.0615 32.0801 38.6207C32.2323 38.5158 32.3354 38.5134 32.4896 38.62C33.1199 39.0564 33.7576 39.4826 34.4013 39.8988C34.559 40.0009 34.6233 40.1064 34.6173 40.2968C34.6024 40.764 34.6125 41.2318 34.6125 41.6995C34.6126 42.83 34.6727 43.045 35.2677 44.0045Z" fill="#D09808"/>
<path d="M24.83 44.0114C24.83 43.414 24.83 42.8507 24.83 42.2874C24.83 41.4883 24.839 40.689 24.8275 39.89C24.8148 39.0104 25.106 38.2505 25.6775 37.5931C26.2901 36.8882 26.9042 36.1848 27.5203 35.4831C27.8263 35.1346 28.1458 35.039 28.5006 35.1794C28.8583 35.321 29.021 35.5969 29.0215 36.0663C29.0221 36.6899 29.0234 37.3137 29.0208 37.9374C29.0195 38.2405 28.7161 38.4248 28.4411 38.2891C27.9377 38.0404 27.4364 37.7872 26.9058 37.5216C26.77 37.792 26.6413 38.0484 26.493 38.3438C26.8763 38.5382 27.2518 38.7287 27.6819 38.9467C27.3609 39.1133 27.1436 39.3634 26.777 39.3384C26.4505 39.316 26.1212 39.3336 25.7768 39.3336C25.7768 39.6454 25.7768 39.9341 25.7768 40.2585C26.0142 40.2585 26.2604 40.2585 26.5465 40.2585C26.2897 41.1684 26.0449 42.0352 25.7901 42.9375C26.0859 43.0257 26.3676 43.1098 26.6665 43.1989C26.7658 42.8601 26.8608 42.5365 26.98 42.1305C27.2296 42.4435 27.4495 42.7192 27.6764 43.0037C27.9741 42.6994 28.1766 42.4924 28.403 42.2609C28.0897 41.9479 27.7803 41.6274 27.4574 41.3212C27.3163 41.1874 27.2922 41.0693 27.3238 40.8672C27.4131 40.2975 27.701 39.9228 28.2237 39.6929C28.4863 39.5775 28.7228 39.4022 29.0058 39.2332C29.0126 39.3406 29.021 39.4124 29.021 39.4843C29.0219 40.3809 29.0242 41.2775 29.0209 42.1741C29.0171 43.216 28.2343 44.0058 27.2008 44.0107C26.4247 44.0144 25.649 44.0114 24.83 44.0114Z" fill="#D09808"/>
<path d="M36.1599 42.267C36.3914 42.4901 36.6002 42.6914 36.8633 42.9448C37.0817 42.6895 37.3074 42.4258 37.5779 42.1095C37.7017 42.5234 37.8002 42.8526 37.9028 43.1958C38.1944 43.1115 38.471 43.0315 38.7787 42.9425C38.5271 42.0493 38.2809 41.1753 38.0257 40.2695C38.2994 40.2695 38.5384 40.2695 38.7925 40.2695C38.7925 39.9564 38.7925 39.6676 38.7925 39.3526C38.1745 39.2569 37.4614 39.5381 36.9359 38.9269C37.3019 38.7391 37.6755 38.5471 38.0734 38.3429C37.9355 38.0656 37.8074 37.8078 37.6653 37.5217C37.1707 37.7694 36.6886 38.012 36.2055 38.2525C35.8197 38.4445 35.547 38.2758 35.5468 37.8466C35.5464 37.2229 35.5447 36.5993 35.5475 35.9756C35.5493 35.5872 35.7328 35.3049 36.0696 35.1789C36.4154 35.0496 36.7285 35.1239 36.9697 35.3973C37.6773 36.1996 38.3893 36.9989 39.0697 37.8243C39.5212 38.3721 39.7343 39.0292 39.7364 39.7445C39.7404 41.0794 39.7378 42.4145 39.7381 43.7495C39.7381 43.8254 39.7381 43.9012 39.7381 44.0104C39.0388 44.0104 38.3627 44.0118 37.6866 44.0095C37.4734 44.0088 37.2557 44.0239 37.0479 43.987C36.1608 43.8294 35.5499 43.0841 35.5473 42.1727C35.5446 41.2086 35.5467 40.2443 35.5467 39.2159C36.051 39.5242 36.5719 39.7512 36.9631 40.1178C37.1824 40.3234 37.1953 40.758 37.2788 41.095C37.2916 41.1467 37.1901 41.2353 37.1304 41.2959C36.8105 41.6199 36.487 41.9403 36.1599 42.267Z" fill="#D09808"/>
<path d="M18.3184 20.6309C18.6309 20.6309 18.9109 20.6309 19.2263 20.6309C19.2833 22.0723 19.8306 23.2853 20.9339 24.2242C21.5438 24.7432 22.4133 25.136 23.1175 25.2038C22.9468 25.0221 22.7991 24.8649 22.6429 24.6985C22.8676 24.4833 23.0826 24.2773 23.2998 24.0691C23.771 24.5334 24.2652 24.9995 24.7278 25.4953C24.8138 25.5875 24.8325 25.8302 24.7733 25.9481C24.7084 26.0771 24.5228 26.2123 24.3799 26.2243C21.316 26.4819 18.6407 24.2345 18.3205 21.1471C18.3038 20.9854 18.3184 20.8203 18.3184 20.6309Z" fill="#D09808"/>
<path d="M24.3553 27.1867C24.3553 27.4968 24.3553 27.7779 24.3553 28.0915C21.9967 28.066 20.3376 29.1047 19.5048 31.3666C19.6094 31.2694 19.7139 31.1723 19.8333 31.0614C20.0331 31.2897 20.2279 31.5123 20.4561 31.773C20.1978 32.0292 19.8908 32.3331 19.5843 32.6378C19.4327 32.7884 19.2828 32.9407 19.1311 33.0912C18.9712 33.2498 18.7864 33.3042 18.5754 33.2072C18.3758 33.1155 18.3089 32.9497 18.3046 32.7344C18.2579 30.3834 19.9742 28.0775 22.2667 27.4084C22.9424 27.2112 23.6271 27.1323 24.3553 27.1867Z" fill="#D09808"/>
</svg>
