<svg width="59" height="60" viewBox="0 0 59 60" fill="none" xmlns="http://www.w3.org/2000/svg">
<rect width="58.8462" height="60" rx="6" fill="#DFFFC6"/>
<path d="M42.6924 37.6257C42.5475 37.3077 42.2915 37.2057 41.9352 37.207C39.3489 37.2161 36.7625 37.2116 34.1761 37.2122C33.5605 37.2122 33.3783 37.4433 33.4264 38.0301C33.5381 39.3855 33.0607 40.5514 32.0414 41.4835C30.7405 42.674 29.1774 43.0285 27.4728 42.5215C25.7526 42.0093 24.7002 40.8389 24.327 39.1479C24.2396 38.752 24.2667 38.3255 24.2884 37.9159C24.3108 37.5056 24.0886 37.2155 23.6599 37.2148C21.3621 37.2109 19.0642 37.2116 16.7663 37.2148C16.4128 37.2155 16.1656 37.4375 16.1487 37.7439C16.1331 38.036 16.3776 38.2801 16.7243 38.3119C16.8225 38.321 16.9221 38.319 17.0216 38.319C18.9138 38.3197 20.8067 38.319 22.6989 38.319C22.8059 38.319 22.9136 38.319 23.0423 38.319C23.0822 38.6293 23.1114 38.9266 23.1601 39.2207C23.5536 41.6017 25.565 43.4718 28.0721 43.7944C28.1324 43.8022 28.19 43.8288 28.2489 43.8464C28.6458 43.8464 29.042 43.8464 29.4388 43.8464C29.4889 43.8295 29.537 43.8035 29.5885 43.7964C32.1667 43.4433 34.0948 41.6529 34.5317 39.1966C34.5824 38.9117 34.6061 38.6222 34.6441 38.319C34.7727 38.319 34.8798 38.319 34.9868 38.319C37.284 38.319 39.5818 38.3151 41.879 38.3236C42.2319 38.3248 42.5116 38.2431 42.6904 37.9367C42.6924 37.8328 42.6924 37.7289 42.6924 37.6257Z" fill="#73A900"/>
<path d="M17.0545 43.8449C17.4392 43.7002 17.8151 43.5509 18.0819 43.2198C18.5444 42.6453 18.5878 41.8599 18.1706 41.2633C17.7548 40.6681 16.9556 40.3883 16.2506 40.5908C15.5226 40.7998 15.016 41.4275 15.0011 42.139C14.9856 42.8822 15.4529 43.5177 16.1863 43.7547C16.2615 43.7787 16.3326 43.8144 16.405 43.8443C16.6218 43.8449 16.8385 43.8449 17.0545 43.8449Z" fill="#73A900"/>
<path d="M36.6883 43.8445C37.0621 43.701 37.4238 43.5465 37.6886 43.2297C38.1559 42.6695 38.2066 41.8867 37.7962 41.2778C37.3946 40.6813 36.5928 40.3904 35.8864 40.5858C35.1415 40.7916 34.6491 41.3959 34.6193 42.1425C34.5909 42.8571 35.0622 43.5089 35.7774 43.7471C35.8499 43.7711 35.9162 43.8114 35.9853 43.8438C36.219 43.8445 36.454 43.8445 36.6883 43.8445Z" fill="#73A900"/>
<path d="M42.6927 40.735C42.6101 40.5669 42.5396 40.3929 42.4435 40.2319C42.052 39.575 41.2007 39.2686 40.4341 39.501C39.6654 39.7334 39.1724 40.4513 39.2388 41.2413C39.3004 41.9716 39.918 42.6 40.6833 42.7103C41.5536 42.8356 42.3216 42.387 42.6053 41.5899C42.6277 41.5269 42.6636 41.4692 42.6934 41.4088C42.6927 41.1842 42.6927 40.9596 42.6927 40.735Z" fill="#73A900"/>
<path d="M32.3056 37.3494C32.2209 34.9203 31.9941 32.6919 31.5674 30.4809C31.0094 27.5897 30.156 24.7867 28.9553 22.0812C28.2821 20.5635 27.5013 19.0984 26.5599 17.7151C26.5206 17.6573 26.482 17.5982 26.4366 17.545C26.2301 17.3042 25.9165 17.2386 25.6659 17.3814C25.4248 17.5191 25.326 17.7975 25.4377 18.0831C25.7269 18.8251 26.0486 19.556 26.3127 20.3058C26.9568 22.1311 27.3821 24.0039 27.6171 25.9195C27.7877 27.3138 27.8331 28.7107 27.7552 30.1077C27.6462 32.0544 27.2466 33.9518 26.5213 35.7785C26.4813 35.8791 26.4048 35.9713 26.3283 36.0531C25.4248 37.0216 25.1363 38.1387 25.5691 39.3669C26.012 40.6243 26.9669 41.3779 28.3336 41.5973C30.37 41.9251 32.2839 40.3633 32.3063 38.3822C32.3097 37.9764 32.3056 37.5707 32.3056 37.3494Z" fill="#73A900"/>
<path d="M23.0732 41.0869C23.0793 40.1703 22.3032 39.4238 21.3442 39.4238C20.392 39.4238 19.599 40.1827 19.6064 41.0869C19.6132 41.9821 20.392 42.7312 21.3313 42.7461C22.27 42.7617 23.0671 42.0022 23.0732 41.0869Z" fill="#73A900"/>
</svg>
